M48
; DRILL file {KiCad 8.0.4} date 2025-02-18T12:53:58-0300
; FORMAT={-:-/ absolute / metric / decimal}
; #@! TF.CreationDate,2025-02-18T12:53:58-03:00
; #@! TF.GenerationSoftware,Kicad,Pcbnew,8.0.4
; #@! TF.FileFunction,Plated,1,2,PTH
FMAT,2
METRIC
; #@! TA.AperFunction,Plated,PTH,ViaDrill
T1C0.584
; #@! TA.AperFunction,Plated,PTH,ComponentDrill
T2C0.635
; #@! TA.AperFunction,Plated,PTH,ComponentDrill
T3C0.800
; #@! TA.AperFunction,Plated,PTH,ComponentDrill
T4C0.813
; #@! TA.AperFunction,Plated,PTH,ComponentDrill
T5C1.001
; #@! TA.AperFunction,Plated,PTH,ComponentDrill
T6C1.016
; #@! TA.AperFunction,Plated,PTH,ComponentDrill
T7C3.048
%
G90
G05
T1
X81.28Y-121.92
X88.265Y-81.915
X88.9Y-79.375
X89.535Y-76.835
X90.17Y-74.295
X90.805Y-71.755
X91.44Y-69.215
X92.075Y-66.04
X96.52Y-37.465
X97.79Y-114.3
X103.505Y-71.12
X104.775Y-36.83
X104.775Y-45.085
X104.775Y-90.17
X116.205Y-60.325
X116.84Y-62.865
X117.475Y-65.405
X118.11Y-71.12
X118.745Y-100.33
X119.38Y-97.79
X120.015Y-90.17
X120.015Y-95.25
X120.65Y-92.71
X121.285Y-87.63
X122.555Y-90.17
X123.19Y-71.755
X123.19Y-80.645
X123.19Y-85.09
X124.46Y-71.12
X124.46Y-80.01
X124.46Y-87.63
X124.46Y-92.71
X125.095Y-95.25
X125.095Y-100.33
X125.73Y-70.485
X125.73Y-80.645
X125.73Y-86.36
X127.0Y-80.01
X127.635Y-121.92
X127.635Y-125.095
X128.27Y-69.85
X133.985Y-71.755
X133.985Y-80.645
X134.62Y-93.98
X134.62Y-121.285
X135.89Y-70.485
X135.89Y-80.645
X136.525Y-51.435
X137.16Y-71.755
X137.16Y-121.285
X139.7Y-121.285
X140.97Y-71.755
X140.97Y-99.06
X142.24Y-56.515
X142.24Y-64.77
X142.24Y-91.44
X142.24Y-113.03
X142.875Y-55.245
X142.875Y-121.285
X142.875Y-127.635
X144.145Y-41.275
X144.145Y-50.8
X144.78Y-71.755
X145.415Y-121.285
X148.59Y-70.485
X148.59Y-93.98
X149.225Y-121.285
X153.035Y-43.18
X153.035Y-79.375
X155.575Y-47.625
X155.575Y-52.705
X156.21Y-70.485
X160.02Y-70.485
X160.02Y-107.95
X160.655Y-102.87
X165.1Y-78.74
X165.735Y-56.515
X166.37Y-55.245
X166.37Y-81.915
X167.005Y-104.14
X167.64Y-50.165
X167.64Y-120.015
X168.275Y-118.745
X168.275Y-125.73
X168.91Y-117.475
X169.545Y-114.3
X170.18Y-107.95
X170.18Y-111.76
X171.45Y-79.375
X171.45Y-109.22
X172.72Y-106.68
X173.355Y-118.11
X173.99Y-120.65
X176.53Y-64.135
X178.435Y-69.215
X179.705Y-70.485
T2
X111.76Y-109.22
X111.76Y-115.57
X132.08Y-121.285
T3
X82.55Y-97.79
X82.55Y-100.33
X82.55Y-102.87
X82.55Y-105.41
X82.55Y-107.95
X82.55Y-110.49
X82.55Y-113.03
X82.55Y-115.57
X86.36Y-123.825
X86.36Y-126.325
X90.17Y-97.79
X90.17Y-100.33
X90.17Y-102.87
X90.17Y-105.41
X90.17Y-107.95
X90.17Y-110.49
X90.17Y-113.03
X90.17Y-115.57
X99.695Y-45.085
X99.695Y-47.625
X99.695Y-50.165
X99.695Y-52.705
X99.695Y-55.245
X99.695Y-57.785
X99.695Y-60.325
X99.695Y-62.865
X99.695Y-65.405
X99.695Y-67.945
X100.33Y-92.71
X100.33Y-95.25
X100.33Y-97.79
X100.33Y-100.33
X100.33Y-102.87
X100.33Y-105.41
X100.33Y-107.95
X100.33Y-110.49
X100.33Y-113.03
X100.33Y-115.57
X107.315Y-45.085
X107.315Y-47.625
X107.315Y-50.165
X107.315Y-52.705
X107.315Y-55.245
X107.315Y-57.785
X107.315Y-60.325
X107.315Y-62.865
X107.315Y-65.405
X107.315Y-67.945
X107.95Y-92.71
X107.95Y-95.25
X107.95Y-97.79
X107.95Y-100.33
X107.95Y-102.87
X107.95Y-105.41
X107.95Y-107.95
X107.95Y-110.49
X107.95Y-113.03
X107.95Y-115.57
X113.03Y-45.085
X113.03Y-47.625
X113.03Y-50.165
X113.03Y-52.705
X113.03Y-55.245
X113.03Y-57.785
X113.03Y-60.325
X113.03Y-62.865
X113.03Y-65.405
X113.03Y-67.945
X115.57Y-82.55
X115.57Y-85.09
X115.57Y-87.63
X115.57Y-90.17
X115.57Y-92.71
X115.57Y-95.25
X115.57Y-97.79
X115.57Y-100.33
X115.57Y-102.87
X115.57Y-105.41
X115.57Y-107.95
X115.57Y-110.49
X115.57Y-113.03
X115.57Y-115.57
X120.65Y-45.085
X120.65Y-47.625
X120.65Y-50.165
X120.65Y-52.705
X120.65Y-55.245
X120.65Y-57.785
X120.65Y-60.325
X120.65Y-62.865
X120.65Y-65.405
X120.65Y-67.945
X126.365Y-45.085
X126.365Y-47.625
X126.365Y-50.165
X126.365Y-52.705
X126.365Y-55.245
X126.365Y-57.785
X126.365Y-60.325
X126.365Y-62.865
X126.365Y-65.405
X126.365Y-67.945
X130.81Y-82.55
X130.81Y-85.09
X130.81Y-87.63
X130.81Y-90.17
X130.81Y-92.71
X130.81Y-95.25
X130.81Y-97.79
X130.81Y-100.33
X130.81Y-102.87
X130.81Y-105.41
X130.81Y-107.95
X130.81Y-110.49
X130.81Y-113.03
X130.81Y-115.57
X133.985Y-45.085
X133.985Y-47.625
X133.985Y-50.165
X133.985Y-52.705
X133.985Y-55.245
X133.985Y-57.785
X133.985Y-60.325
X133.985Y-62.865
X133.985Y-65.405
X133.985Y-67.945
X138.43Y-97.79
X138.43Y-100.33
X138.43Y-102.87
X138.43Y-105.41
X138.43Y-107.95
X138.43Y-110.49
X138.43Y-113.03
X138.43Y-115.57
X139.065Y-52.705
X139.065Y-55.245
X139.065Y-57.785
X139.065Y-60.325
X139.065Y-62.865
X139.065Y-65.405
X139.065Y-67.945
X146.05Y-97.79
X146.05Y-100.33
X146.05Y-102.87
X146.05Y-105.41
X146.05Y-107.95
X146.05Y-110.49
X146.05Y-113.03
X146.05Y-115.57
X146.685Y-52.705
X146.685Y-55.245
X146.685Y-57.785
X146.685Y-60.325
X146.685Y-62.865
X146.685Y-65.405
X146.685Y-67.945
X150.495Y-52.705
X150.495Y-55.245
X150.495Y-57.785
X150.495Y-60.325
X150.495Y-62.865
X150.495Y-65.405
X150.495Y-67.945
X156.21Y-92.71
X156.21Y-95.25
X156.21Y-97.79
X156.21Y-100.33
X156.21Y-102.87
X156.21Y-105.41
X156.21Y-107.95
X156.21Y-110.49
X156.21Y-113.03
X156.21Y-115.57
X158.115Y-52.705
X158.115Y-55.245
X158.115Y-57.785
X158.115Y-60.325
X158.115Y-62.865
X158.115Y-65.405
X158.115Y-67.945
X161.925Y-52.705
X161.925Y-55.245
X161.925Y-57.785
X161.925Y-60.325
X161.925Y-62.865
X161.925Y-65.405
X161.925Y-67.945
X163.83Y-92.71
X163.83Y-95.25
X163.83Y-97.79
X163.83Y-100.33
X163.83Y-102.87
X163.83Y-105.41
X163.83Y-107.95
X163.83Y-110.49
X163.83Y-113.03
X163.83Y-115.57
X169.545Y-52.705
X169.545Y-55.245
X169.545Y-57.785
X169.545Y-60.325
X169.545Y-62.865
X169.545Y-65.405
X169.545Y-67.945
X173.355Y-50.165
X173.355Y-52.705
X173.355Y-55.245
X173.355Y-57.785
X173.355Y-60.325
X173.355Y-62.865
X173.355Y-65.405
X173.355Y-67.945
X175.26Y-92.71
X175.26Y-95.25
X175.26Y-97.79
X175.26Y-100.33
X175.26Y-102.87
X175.26Y-105.41
X175.26Y-107.95
X175.26Y-110.49
X175.26Y-113.03
X175.26Y-115.57
X180.975Y-50.165
X180.975Y-52.705
X180.975Y-55.245
X180.975Y-57.785
X180.975Y-60.325
X180.975Y-62.865
X180.975Y-65.405
X180.975Y-67.945
X182.88Y-92.71
X182.88Y-95.25
X182.88Y-97.79
X182.88Y-100.33
X182.88Y-102.87
X182.88Y-105.41
X182.88Y-107.95
X182.88Y-110.49
X182.88Y-113.03
X182.88Y-115.57
T4
X95.25Y-92.71
X95.25Y-95.25
X95.25Y-97.79
X95.25Y-100.33
X95.25Y-102.87
X95.25Y-105.41
X95.25Y-107.95
X95.25Y-110.49
X95.25Y-113.03
X95.25Y-115.57
X100.33Y-82.55
X102.87Y-82.55
X102.87Y-125.73
X102.87Y-128.27
X105.41Y-125.73
X105.41Y-128.27
X107.95Y-125.73
X107.95Y-128.27
X110.49Y-125.73
X110.49Y-128.27
X113.03Y-125.73
X113.03Y-128.27
X139.065Y-37.465
X139.065Y-40.005
X139.065Y-42.545
X146.685Y-37.465
X146.685Y-40.005
X146.685Y-42.545
X151.13Y-92.71
X151.13Y-95.25
X151.13Y-97.79
X151.13Y-100.33
X151.13Y-102.87
X151.13Y-105.41
X151.13Y-107.95
X151.13Y-110.49
X151.13Y-113.03
X151.13Y-115.57
X183.515Y-40.005
X186.055Y-40.005
T5
X99.695Y-37.465
X100.33Y-88.265
X107.315Y-37.465
X107.95Y-88.265
X113.03Y-37.465
X120.65Y-37.465
X126.365Y-37.465
X133.985Y-37.465
X137.16Y-82.55
X137.16Y-85.09
X137.16Y-87.63
X139.065Y-48.26
X146.685Y-48.26
X147.32Y-82.55
X147.32Y-85.09
X147.32Y-87.63
X150.495Y-48.26
X156.21Y-88.265
X158.115Y-48.26
X161.925Y-40.005
X161.925Y-48.26
X163.83Y-88.265
X169.545Y-48.26
X172.085Y-40.005
X173.355Y-45.72
X175.26Y-88.265
X176.53Y-40.005
X179.07Y-40.005
X180.975Y-45.72
X182.88Y-88.265
X186.055Y-50.165
X186.055Y-60.325
T6
X82.55Y-40.005
X82.55Y-42.545
X82.55Y-45.085
X82.55Y-47.625
X82.55Y-50.165
X82.55Y-52.705
X82.55Y-55.245
X82.55Y-57.785
X82.55Y-60.325
X82.55Y-62.865
X82.55Y-65.405
X82.55Y-67.945
X82.55Y-70.485
X82.55Y-73.025
X82.55Y-75.565
X82.55Y-78.105
X82.55Y-80.645
X82.55Y-83.185
X82.55Y-85.725
X82.55Y-88.265
X85.09Y-40.005
X85.09Y-42.545
X85.09Y-45.085
X85.09Y-47.625
X85.09Y-50.165
X85.09Y-52.705
X85.09Y-55.245
X85.09Y-57.785
X85.09Y-60.325
X85.09Y-62.865
X85.09Y-65.405
X85.09Y-67.945
X85.09Y-70.485
X85.09Y-73.025
X85.09Y-75.565
X85.09Y-78.105
X85.09Y-80.645
X85.09Y-83.185
X85.09Y-85.725
X85.09Y-88.265
T7
X186.69Y-71.755
X186.69Y-128.27
M30
