G04 #@! TF.GenerationSoftware,KiCad,Pcbnew,8.0.4*
G04 #@! TF.CreationDate,2025-02-18T12:53:55-03:00*
G04 #@! TF.ProjectId,XT-IDE,58542d49-4445-42e6-9b69-6361645f7063,3B*
G04 #@! TF.SameCoordinates,Original*
G04 #@! TF.FileFunction,Soldermask,Bot*
G04 #@! TF.FilePolarity,Negative*
%FSLAX46Y46*%
G04 Gerber Fmt 4.6, Leading zero omitted, Abs format (unit mm)*
G04 Created by KiCad (PCBNEW 8.0.4) date 2025-02-18 12:53:55*
%MOMM*%
%LPD*%
G01*
G04 APERTURE LIST*
%ADD10C,0.254000*%
%ADD11C,0.381000*%
%ADD12C,4.064000*%
%ADD13R,1.727200X1.727200*%
%ADD14C,1.727200*%
%ADD15R,1.778000X7.112000*%
%ADD16R,1.900000X2.000000*%
%ADD17C,1.900000*%
%ADD18C,1.397000*%
%ADD19O,1.727200X1.727200*%
%ADD20R,2.300000X1.600000*%
%ADD21O,2.300000X1.600000*%
%ADD22C,1.998980*%
G04 APERTURE END LIST*
D10*
X115963094Y-75927651D02*
X115721189Y-76774318D01*
X115721189Y-76774318D02*
X115479284Y-76169556D01*
X115479284Y-76169556D02*
X115237380Y-76774318D01*
X115237380Y-76774318D02*
X114995475Y-75927651D01*
X114632618Y-75927651D02*
X114390713Y-76774318D01*
X114390713Y-76774318D02*
X114148808Y-76169556D01*
X114148808Y-76169556D02*
X113906904Y-76774318D01*
X113906904Y-76774318D02*
X113664999Y-75927651D01*
X113302142Y-75927651D02*
X113060237Y-76774318D01*
X113060237Y-76774318D02*
X112818332Y-76169556D01*
X112818332Y-76169556D02*
X112576428Y-76774318D01*
X112576428Y-76774318D02*
X112334523Y-75927651D01*
X111850714Y-76653365D02*
X111790237Y-76713842D01*
X111790237Y-76713842D02*
X111850714Y-76774318D01*
X111850714Y-76774318D02*
X111911190Y-76713842D01*
X111911190Y-76713842D02*
X111850714Y-76653365D01*
X111850714Y-76653365D02*
X111850714Y-76774318D01*
X111427380Y-75504318D02*
X110701666Y-75504318D01*
X111064523Y-76774318D02*
X111064523Y-75504318D01*
X110278333Y-76774318D02*
X110278333Y-75504318D01*
X109734047Y-76774318D02*
X109734047Y-76109080D01*
X109734047Y-76109080D02*
X109794523Y-75988127D01*
X109794523Y-75988127D02*
X109915475Y-75927651D01*
X109915475Y-75927651D02*
X110096904Y-75927651D01*
X110096904Y-75927651D02*
X110217856Y-75988127D01*
X110217856Y-75988127D02*
X110278333Y-76048603D01*
X108645475Y-76713842D02*
X108766427Y-76774318D01*
X108766427Y-76774318D02*
X109008332Y-76774318D01*
X109008332Y-76774318D02*
X109129285Y-76713842D01*
X109129285Y-76713842D02*
X109189761Y-76592889D01*
X109189761Y-76592889D02*
X109189761Y-76109080D01*
X109189761Y-76109080D02*
X109129285Y-75988127D01*
X109129285Y-75988127D02*
X109008332Y-75927651D01*
X109008332Y-75927651D02*
X108766427Y-75927651D01*
X108766427Y-75927651D02*
X108645475Y-75988127D01*
X108645475Y-75988127D02*
X108584999Y-76109080D01*
X108584999Y-76109080D02*
X108584999Y-76230032D01*
X108584999Y-76230032D02*
X109189761Y-76350984D01*
X108161666Y-75504318D02*
X107859285Y-76774318D01*
X107859285Y-76774318D02*
X107617380Y-75867175D01*
X107617380Y-75867175D02*
X107375475Y-76774318D01*
X107375475Y-76774318D02*
X107073095Y-75504318D01*
X106589285Y-76774318D02*
X106589285Y-75927651D01*
X106589285Y-75504318D02*
X106649761Y-75564794D01*
X106649761Y-75564794D02*
X106589285Y-75625270D01*
X106589285Y-75625270D02*
X106528808Y-75564794D01*
X106528808Y-75564794D02*
X106589285Y-75504318D01*
X106589285Y-75504318D02*
X106589285Y-75625270D01*
X106105475Y-75927651D02*
X105440237Y-75927651D01*
X105440237Y-75927651D02*
X106105475Y-76774318D01*
X106105475Y-76774318D02*
X105440237Y-76774318D01*
X104412142Y-76774318D02*
X104412142Y-76109080D01*
X104412142Y-76109080D02*
X104472618Y-75988127D01*
X104472618Y-75988127D02*
X104593570Y-75927651D01*
X104593570Y-75927651D02*
X104835475Y-75927651D01*
X104835475Y-75927651D02*
X104956428Y-75988127D01*
X104412142Y-76713842D02*
X104533094Y-76774318D01*
X104533094Y-76774318D02*
X104835475Y-76774318D01*
X104835475Y-76774318D02*
X104956428Y-76713842D01*
X104956428Y-76713842D02*
X105016904Y-76592889D01*
X105016904Y-76592889D02*
X105016904Y-76471937D01*
X105016904Y-76471937D02*
X104956428Y-76350984D01*
X104956428Y-76350984D02*
X104835475Y-76290508D01*
X104835475Y-76290508D02*
X104533094Y-76290508D01*
X104533094Y-76290508D02*
X104412142Y-76230032D01*
X103807380Y-76774318D02*
X103807380Y-75927651D01*
X103807380Y-76169556D02*
X103746903Y-76048603D01*
X103746903Y-76048603D02*
X103686427Y-75988127D01*
X103686427Y-75988127D02*
X103565475Y-75927651D01*
X103565475Y-75927651D02*
X103444522Y-75927651D01*
X102476904Y-76774318D02*
X102476904Y-75504318D01*
X102476904Y-76713842D02*
X102597856Y-76774318D01*
X102597856Y-76774318D02*
X102839761Y-76774318D01*
X102839761Y-76774318D02*
X102960713Y-76713842D01*
X102960713Y-76713842D02*
X103021190Y-76653365D01*
X103021190Y-76653365D02*
X103081666Y-76532413D01*
X103081666Y-76532413D02*
X103081666Y-76169556D01*
X103081666Y-76169556D02*
X103021190Y-76048603D01*
X103021190Y-76048603D02*
X102960713Y-75988127D01*
X102960713Y-75988127D02*
X102839761Y-75927651D01*
X102839761Y-75927651D02*
X102597856Y-75927651D01*
X102597856Y-75927651D02*
X102476904Y-75988127D01*
X101872142Y-76653365D02*
X101811665Y-76713842D01*
X101811665Y-76713842D02*
X101872142Y-76774318D01*
X101872142Y-76774318D02*
X101932618Y-76713842D01*
X101932618Y-76713842D02*
X101872142Y-76653365D01*
X101872142Y-76653365D02*
X101872142Y-76774318D01*
X100723094Y-76713842D02*
X100844046Y-76774318D01*
X100844046Y-76774318D02*
X101085951Y-76774318D01*
X101085951Y-76774318D02*
X101206903Y-76713842D01*
X101206903Y-76713842D02*
X101267380Y-76653365D01*
X101267380Y-76653365D02*
X101327856Y-76532413D01*
X101327856Y-76532413D02*
X101327856Y-76169556D01*
X101327856Y-76169556D02*
X101267380Y-76048603D01*
X101267380Y-76048603D02*
X101206903Y-75988127D01*
X101206903Y-75988127D02*
X101085951Y-75927651D01*
X101085951Y-75927651D02*
X100844046Y-75927651D01*
X100844046Y-75927651D02*
X100723094Y-75988127D01*
X99997380Y-76774318D02*
X100118332Y-76713842D01*
X100118332Y-76713842D02*
X100178809Y-76592889D01*
X100178809Y-76592889D02*
X100178809Y-75504318D01*
X98606428Y-75443842D02*
X99694999Y-77076699D01*
X113362618Y-117414318D02*
X112636904Y-117414318D01*
X112999761Y-118684318D02*
X112999761Y-117414318D01*
X112213571Y-118684318D02*
X112213571Y-117414318D01*
X112213571Y-117414318D02*
X111729761Y-117414318D01*
X111729761Y-117414318D02*
X111608809Y-117474794D01*
X111608809Y-117474794D02*
X111548332Y-117535270D01*
X111548332Y-117535270D02*
X111487856Y-117656222D01*
X111487856Y-117656222D02*
X111487856Y-117837651D01*
X111487856Y-117837651D02*
X111548332Y-117958603D01*
X111548332Y-117958603D02*
X111608809Y-118019080D01*
X111608809Y-118019080D02*
X111729761Y-118079556D01*
X111729761Y-118079556D02*
X112213571Y-118079556D01*
X111064523Y-117414318D02*
X110278332Y-117414318D01*
X110278332Y-117414318D02*
X110701666Y-117898127D01*
X110701666Y-117898127D02*
X110520237Y-117898127D01*
X110520237Y-117898127D02*
X110399285Y-117958603D01*
X110399285Y-117958603D02*
X110338809Y-118019080D01*
X110338809Y-118019080D02*
X110278332Y-118140032D01*
X110278332Y-118140032D02*
X110278332Y-118442413D01*
X110278332Y-118442413D02*
X110338809Y-118563365D01*
X110338809Y-118563365D02*
X110399285Y-118623842D01*
X110399285Y-118623842D02*
X110520237Y-118684318D01*
X110520237Y-118684318D02*
X110883094Y-118684318D01*
X110883094Y-118684318D02*
X111004047Y-118623842D01*
X111004047Y-118623842D02*
X111064523Y-118563365D01*
D11*
X116144523Y-72275240D02*
X114451190Y-74815240D01*
X114451190Y-72275240D02*
X116144523Y-74815240D01*
X113846428Y-72275240D02*
X112394999Y-72275240D01*
X113120713Y-74815240D02*
X113120713Y-72275240D01*
X111669285Y-72517145D02*
X111548333Y-72396192D01*
X111548333Y-72396192D02*
X111306428Y-72275240D01*
X111306428Y-72275240D02*
X110701666Y-72275240D01*
X110701666Y-72275240D02*
X110459761Y-72396192D01*
X110459761Y-72396192D02*
X110338809Y-72517145D01*
X110338809Y-72517145D02*
X110217856Y-72759049D01*
X110217856Y-72759049D02*
X110217856Y-73000954D01*
X110217856Y-73000954D02*
X110338809Y-73363811D01*
X110338809Y-73363811D02*
X111790237Y-74815240D01*
X111790237Y-74815240D02*
X110217856Y-74815240D01*
X109129285Y-74815240D02*
X109129285Y-72275240D01*
X107919761Y-74815240D02*
X107919761Y-72275240D01*
X107919761Y-72275240D02*
X107314999Y-72275240D01*
X107314999Y-72275240D02*
X106952142Y-72396192D01*
X106952142Y-72396192D02*
X106710237Y-72638097D01*
X106710237Y-72638097D02*
X106589284Y-72880002D01*
X106589284Y-72880002D02*
X106468332Y-73363811D01*
X106468332Y-73363811D02*
X106468332Y-73726668D01*
X106468332Y-73726668D02*
X106589284Y-74210478D01*
X106589284Y-74210478D02*
X106710237Y-74452383D01*
X106710237Y-74452383D02*
X106952142Y-74694288D01*
X106952142Y-74694288D02*
X107314999Y-74815240D01*
X107314999Y-74815240D02*
X107919761Y-74815240D01*
X105379761Y-73484764D02*
X104533094Y-73484764D01*
X104170237Y-74815240D02*
X105379761Y-74815240D01*
X105379761Y-74815240D02*
X105379761Y-72275240D01*
X105379761Y-72275240D02*
X104170237Y-72275240D01*
X103081666Y-73847621D02*
X101146428Y-73847621D01*
X98727380Y-72275240D02*
X99936904Y-72275240D01*
X99936904Y-72275240D02*
X100057856Y-73484764D01*
X100057856Y-73484764D02*
X99936904Y-73363811D01*
X99936904Y-73363811D02*
X99694999Y-73242859D01*
X99694999Y-73242859D02*
X99090237Y-73242859D01*
X99090237Y-73242859D02*
X98848332Y-73363811D01*
X98848332Y-73363811D02*
X98727380Y-73484764D01*
X98727380Y-73484764D02*
X98606427Y-73726668D01*
X98606427Y-73726668D02*
X98606427Y-74331430D01*
X98606427Y-74331430D02*
X98727380Y-74573335D01*
X98727380Y-74573335D02*
X98848332Y-74694288D01*
X98848332Y-74694288D02*
X99090237Y-74815240D01*
X99090237Y-74815240D02*
X99694999Y-74815240D01*
X99694999Y-74815240D02*
X99936904Y-74694288D01*
X99936904Y-74694288D02*
X100057856Y-74573335D01*
D10*
X131523618Y-122748318D02*
X130797904Y-122748318D01*
X131160761Y-124018318D02*
X131160761Y-122748318D01*
X130374571Y-124018318D02*
X130374571Y-122748318D01*
X130374571Y-122748318D02*
X129890761Y-122748318D01*
X129890761Y-122748318D02*
X129769809Y-122808794D01*
X129769809Y-122808794D02*
X129709332Y-122869270D01*
X129709332Y-122869270D02*
X129648856Y-122990222D01*
X129648856Y-122990222D02*
X129648856Y-123171651D01*
X129648856Y-123171651D02*
X129709332Y-123292603D01*
X129709332Y-123292603D02*
X129769809Y-123353080D01*
X129769809Y-123353080D02*
X129890761Y-123413556D01*
X129890761Y-123413556D02*
X130374571Y-123413556D01*
X129165047Y-122869270D02*
X129104571Y-122808794D01*
X129104571Y-122808794D02*
X128983618Y-122748318D01*
X128983618Y-122748318D02*
X128681237Y-122748318D01*
X128681237Y-122748318D02*
X128560285Y-122808794D01*
X128560285Y-122808794D02*
X128499809Y-122869270D01*
X128499809Y-122869270D02*
X128439332Y-122990222D01*
X128439332Y-122990222D02*
X128439332Y-123111175D01*
X128439332Y-123111175D02*
X128499809Y-123292603D01*
X128499809Y-123292603D02*
X129225523Y-124018318D01*
X129225523Y-124018318D02*
X128439332Y-124018318D01*
X113362618Y-105984318D02*
X112636904Y-105984318D01*
X112999761Y-107254318D02*
X112999761Y-105984318D01*
X112213571Y-107254318D02*
X112213571Y-105984318D01*
X112213571Y-105984318D02*
X111729761Y-105984318D01*
X111729761Y-105984318D02*
X111608809Y-106044794D01*
X111608809Y-106044794D02*
X111548332Y-106105270D01*
X111548332Y-106105270D02*
X111487856Y-106226222D01*
X111487856Y-106226222D02*
X111487856Y-106407651D01*
X111487856Y-106407651D02*
X111548332Y-106528603D01*
X111548332Y-106528603D02*
X111608809Y-106589080D01*
X111608809Y-106589080D02*
X111729761Y-106649556D01*
X111729761Y-106649556D02*
X112213571Y-106649556D01*
X110278332Y-107254318D02*
X111004047Y-107254318D01*
X110641190Y-107254318D02*
X110641190Y-105984318D01*
X110641190Y-105984318D02*
X110762142Y-106165746D01*
X110762142Y-106165746D02*
X110883094Y-106286699D01*
X110883094Y-106286699D02*
X111004047Y-106347175D01*
D12*
X186690000Y-128270000D03*
X186690000Y-71755000D03*
D13*
X102870000Y-82550000D03*
D14*
X100330000Y-82550000D03*
D13*
X139065000Y-37465000D03*
D14*
X139065000Y-40005000D03*
X139065000Y-42545000D03*
D13*
X146685000Y-37465000D03*
D14*
X146685000Y-40005000D03*
X146685000Y-42545000D03*
D13*
X102870000Y-128270000D03*
D14*
X102870000Y-125730000D03*
X105410000Y-128270000D03*
X105410000Y-125730000D03*
X107950000Y-128270000D03*
X107950000Y-125730000D03*
X110490000Y-128270000D03*
X110490000Y-125730000D03*
X113030000Y-128270000D03*
X113030000Y-125730000D03*
D13*
X186055000Y-40005000D03*
D14*
X183515000Y-40005000D03*
D15*
X165100000Y-136906000D03*
X162560000Y-136906000D03*
X160020000Y-136906000D03*
X157480000Y-136906000D03*
X147320000Y-136906000D03*
X139700000Y-136906000D03*
X137160000Y-136906000D03*
X134620000Y-136906000D03*
X132080000Y-136906000D03*
X114300000Y-136906000D03*
X109220000Y-136906000D03*
X106680000Y-136906000D03*
X104140000Y-136906000D03*
X93980000Y-136906000D03*
X88900000Y-136906000D03*
D16*
X179070000Y-40005000D03*
D17*
X176530000Y-40005000D03*
D18*
X132080000Y-121285000D03*
X111760000Y-115570000D03*
X111760000Y-109220000D03*
D13*
X86360000Y-123825000D03*
D14*
X86360000Y-126325000D03*
D13*
X85090000Y-88265000D03*
D19*
X82550000Y-88265000D03*
X85090000Y-85725000D03*
X82550000Y-85725000D03*
X85090000Y-83185000D03*
X82550000Y-83185000D03*
X85090000Y-80645000D03*
X82550000Y-80645000D03*
X85090000Y-78105000D03*
X82550000Y-78105000D03*
X85090000Y-75565000D03*
X82550000Y-75565000D03*
X85090000Y-73025000D03*
X82550000Y-73025000D03*
X85090000Y-70485000D03*
X82550000Y-70485000D03*
X85090000Y-67945000D03*
X82550000Y-67945000D03*
X85090000Y-65405000D03*
X82550000Y-65405000D03*
X85090000Y-62865000D03*
X82550000Y-62865000D03*
X85090000Y-60325000D03*
X82550000Y-60325000D03*
X85090000Y-57785000D03*
X82550000Y-57785000D03*
X85090000Y-55245000D03*
X82550000Y-55245000D03*
X85090000Y-52705000D03*
X82550000Y-52705000D03*
X85090000Y-50165000D03*
X82550000Y-50165000D03*
X85090000Y-47625000D03*
X82550000Y-47625000D03*
X85090000Y-45085000D03*
X82550000Y-45085000D03*
X85090000Y-42545000D03*
X82550000Y-42545000D03*
X85090000Y-40005000D03*
X82550000Y-40005000D03*
D20*
X82550000Y-97790000D03*
D21*
X82550000Y-100330000D03*
X82550000Y-102870000D03*
X82550000Y-105410000D03*
X82550000Y-107950000D03*
X82550000Y-110490000D03*
X82550000Y-113030000D03*
X82550000Y-115570000D03*
X90170000Y-115570000D03*
X90170000Y-113030000D03*
X90170000Y-110490000D03*
X90170000Y-107950000D03*
X90170000Y-105410000D03*
X90170000Y-102870000D03*
X90170000Y-100330000D03*
X90170000Y-97790000D03*
D20*
X138430000Y-97790000D03*
D21*
X138430000Y-100330000D03*
X138430000Y-102870000D03*
X138430000Y-105410000D03*
X138430000Y-107950000D03*
X138430000Y-110490000D03*
X138430000Y-113030000D03*
X138430000Y-115570000D03*
X146050000Y-115570000D03*
X146050000Y-113030000D03*
X146050000Y-110490000D03*
X146050000Y-107950000D03*
X146050000Y-105410000D03*
X146050000Y-102870000D03*
X146050000Y-100330000D03*
X146050000Y-97790000D03*
D20*
X99695000Y-45085000D03*
D21*
X99695000Y-47625000D03*
X99695000Y-50165000D03*
X99695000Y-52705000D03*
X99695000Y-55245000D03*
X99695000Y-57785000D03*
X99695000Y-60325000D03*
X99695000Y-62865000D03*
X99695000Y-65405000D03*
X99695000Y-67945000D03*
X107315000Y-67945000D03*
X107315000Y-65405000D03*
X107315000Y-62865000D03*
X107315000Y-60325000D03*
X107315000Y-57785000D03*
X107315000Y-55245000D03*
X107315000Y-52705000D03*
X107315000Y-50165000D03*
X107315000Y-47625000D03*
X107315000Y-45085000D03*
D20*
X113030000Y-45085000D03*
D21*
X113030000Y-47625000D03*
X113030000Y-50165000D03*
X113030000Y-52705000D03*
X113030000Y-55245000D03*
X113030000Y-57785000D03*
X113030000Y-60325000D03*
X113030000Y-62865000D03*
X113030000Y-65405000D03*
X113030000Y-67945000D03*
X120650000Y-67945000D03*
X120650000Y-65405000D03*
X120650000Y-62865000D03*
X120650000Y-60325000D03*
X120650000Y-57785000D03*
X120650000Y-55245000D03*
X120650000Y-52705000D03*
X120650000Y-50165000D03*
X120650000Y-47625000D03*
X120650000Y-45085000D03*
D20*
X126365000Y-45085000D03*
D21*
X126365000Y-47625000D03*
X126365000Y-50165000D03*
X126365000Y-52705000D03*
X126365000Y-55245000D03*
X126365000Y-57785000D03*
X126365000Y-60325000D03*
X126365000Y-62865000D03*
X126365000Y-65405000D03*
X126365000Y-67945000D03*
X133985000Y-67945000D03*
X133985000Y-65405000D03*
X133985000Y-62865000D03*
X133985000Y-60325000D03*
X133985000Y-57785000D03*
X133985000Y-55245000D03*
X133985000Y-52705000D03*
X133985000Y-50165000D03*
X133985000Y-47625000D03*
X133985000Y-45085000D03*
D20*
X150495000Y-52705000D03*
D21*
X150495000Y-55245000D03*
X150495000Y-57785000D03*
X150495000Y-60325000D03*
X150495000Y-62865000D03*
X150495000Y-65405000D03*
X150495000Y-67945000D03*
X158115000Y-67945000D03*
X158115000Y-65405000D03*
X158115000Y-62865000D03*
X158115000Y-60325000D03*
X158115000Y-57785000D03*
X158115000Y-55245000D03*
X158115000Y-52705000D03*
D20*
X161925000Y-52705000D03*
D21*
X161925000Y-55245000D03*
X161925000Y-57785000D03*
X161925000Y-60325000D03*
X161925000Y-62865000D03*
X161925000Y-65405000D03*
X161925000Y-67945000D03*
X169545000Y-67945000D03*
X169545000Y-65405000D03*
X169545000Y-62865000D03*
X169545000Y-60325000D03*
X169545000Y-57785000D03*
X169545000Y-55245000D03*
X169545000Y-52705000D03*
D20*
X173355000Y-50165000D03*
D21*
X173355000Y-52705000D03*
X173355000Y-55245000D03*
X173355000Y-57785000D03*
X173355000Y-60325000D03*
X173355000Y-62865000D03*
X173355000Y-65405000D03*
X173355000Y-67945000D03*
X180975000Y-67945000D03*
X180975000Y-65405000D03*
X180975000Y-62865000D03*
X180975000Y-60325000D03*
X180975000Y-57785000D03*
X180975000Y-55245000D03*
X180975000Y-52705000D03*
X180975000Y-50165000D03*
D20*
X100330000Y-92710000D03*
D21*
X100330000Y-95250000D03*
X100330000Y-97790000D03*
X100330000Y-100330000D03*
X100330000Y-102870000D03*
X100330000Y-105410000D03*
X100330000Y-107950000D03*
X100330000Y-110490000D03*
X100330000Y-113030000D03*
X100330000Y-115570000D03*
X107950000Y-115570000D03*
X107950000Y-113030000D03*
X107950000Y-110490000D03*
X107950000Y-107950000D03*
X107950000Y-105410000D03*
X107950000Y-102870000D03*
X107950000Y-100330000D03*
X107950000Y-97790000D03*
X107950000Y-95250000D03*
X107950000Y-92710000D03*
D20*
X115570000Y-82550000D03*
D21*
X115570000Y-85090000D03*
X115570000Y-87630000D03*
X115570000Y-90170000D03*
X115570000Y-92710000D03*
X115570000Y-95250000D03*
X115570000Y-97790000D03*
X115570000Y-100330000D03*
X115570000Y-102870000D03*
X115570000Y-105410000D03*
X115570000Y-107950000D03*
X115570000Y-110490000D03*
X115570000Y-113030000D03*
X115570000Y-115570000D03*
X130810000Y-115570000D03*
X130810000Y-113030000D03*
X130810000Y-110490000D03*
X130810000Y-107950000D03*
X130810000Y-105410000D03*
X130810000Y-102870000D03*
X130810000Y-100330000D03*
X130810000Y-97790000D03*
X130810000Y-95250000D03*
X130810000Y-92710000D03*
X130810000Y-90170000D03*
X130810000Y-87630000D03*
X130810000Y-85090000D03*
X130810000Y-82550000D03*
D20*
X156210000Y-92710000D03*
D21*
X156210000Y-95250000D03*
X156210000Y-97790000D03*
X156210000Y-100330000D03*
X156210000Y-102870000D03*
X156210000Y-105410000D03*
X156210000Y-107950000D03*
X156210000Y-110490000D03*
X156210000Y-113030000D03*
X156210000Y-115570000D03*
X163830000Y-115570000D03*
X163830000Y-113030000D03*
X163830000Y-110490000D03*
X163830000Y-107950000D03*
X163830000Y-105410000D03*
X163830000Y-102870000D03*
X163830000Y-100330000D03*
X163830000Y-97790000D03*
X163830000Y-95250000D03*
X163830000Y-92710000D03*
D20*
X175260000Y-92710000D03*
D21*
X175260000Y-95250000D03*
X175260000Y-97790000D03*
X175260000Y-100330000D03*
X175260000Y-102870000D03*
X175260000Y-105410000D03*
X175260000Y-107950000D03*
X175260000Y-110490000D03*
X175260000Y-113030000D03*
X175260000Y-115570000D03*
X182880000Y-115570000D03*
X182880000Y-113030000D03*
X182880000Y-110490000D03*
X182880000Y-107950000D03*
X182880000Y-105410000D03*
X182880000Y-102870000D03*
X182880000Y-100330000D03*
X182880000Y-97790000D03*
X182880000Y-95250000D03*
X182880000Y-92710000D03*
D13*
X95250000Y-92710000D03*
D14*
X95250000Y-95250000D03*
X95250000Y-97790000D03*
X95250000Y-100330000D03*
X95250000Y-102870000D03*
X95250000Y-105410000D03*
X95250000Y-107950000D03*
X95250000Y-110490000D03*
X95250000Y-113030000D03*
X95250000Y-115570000D03*
D13*
X151130000Y-92710000D03*
D14*
X151130000Y-95250000D03*
X151130000Y-97790000D03*
X151130000Y-100330000D03*
X151130000Y-102870000D03*
X151130000Y-105410000D03*
X151130000Y-107950000D03*
X151130000Y-110490000D03*
X151130000Y-113030000D03*
X151130000Y-115570000D03*
D22*
X107315000Y-37465000D03*
X99695000Y-37465000D03*
X120650000Y-37465000D03*
X113030000Y-37465000D03*
X133985000Y-37465000D03*
X126365000Y-37465000D03*
X146685000Y-48260000D03*
X139065000Y-48260000D03*
X158115000Y-48260000D03*
X150495000Y-48260000D03*
X169545000Y-48260000D03*
X161925000Y-48260000D03*
X173355000Y-45720000D03*
X180975000Y-45720000D03*
X137160000Y-82550000D03*
X147320000Y-82550000D03*
X107950000Y-88265000D03*
X100330000Y-88265000D03*
X163830000Y-88265000D03*
X156210000Y-88265000D03*
X172085000Y-40005000D03*
X161925000Y-40005000D03*
X186055000Y-50165000D03*
X186055000Y-60325000D03*
X147320000Y-85090000D03*
X137160000Y-85090000D03*
X137160000Y-87630000D03*
X147320000Y-87630000D03*
D20*
X139065000Y-52705000D03*
D21*
X139065000Y-55245000D03*
X139065000Y-57785000D03*
X139065000Y-60325000D03*
X139065000Y-62865000D03*
X139065000Y-65405000D03*
X139065000Y-67945000D03*
X146685000Y-67945000D03*
X146685000Y-65405000D03*
X146685000Y-62865000D03*
X146685000Y-60325000D03*
X146685000Y-57785000D03*
X146685000Y-55245000D03*
X146685000Y-52705000D03*
D22*
X175260000Y-88265000D03*
X182880000Y-88265000D03*
G36*
X167582121Y-132735002D02*
G01*
X167628614Y-132788658D01*
X167640000Y-132841000D01*
X167640000Y-140844000D01*
X167619998Y-140912121D01*
X167566342Y-140958614D01*
X167514000Y-140970000D01*
X86486000Y-140970000D01*
X86417879Y-140949998D01*
X86371386Y-140896342D01*
X86360000Y-140844000D01*
X86360000Y-132841000D01*
X86380002Y-132772879D01*
X86433658Y-132726386D01*
X86486000Y-132715000D01*
X167514000Y-132715000D01*
X167582121Y-132735002D01*
G37*
M02*
