%TF.GenerationSoftware,KiCad,Pcbnew,8.0.4*%
%TF.CreationDate,2024-11-11T08:19:32-05:00*%
%TF.ProjectId,XT-IDE,58542d49-4445-42e6-9b69-6361645f7063,3B*%
%TF.SameCoordinates,Original*%
%TF.FileFunction,Soldermask,Bot*%
%TF.FilePolarity,Negative*%
%FSLAX46Y46*%
G04 Gerber Fmt 4.6, Leading zero omitted, Abs format (unit mm)*
G04 Created by KiCad (PCBNEW 8.0.4) date 2024-11-11 08:19:32*
%MOMM*%
%LPD*%
G01*
G04 APERTURE LIST*
G04 Aperture macros list*
%AMRoundRect*
0 Rectangle with rounded corners*
0 $1 Rounding radius*
0 $2 $3 $4 $5 $6 $7 $8 $9 X,Y pos of 4 corners*
0 Add a 4 corners polygon primitive as box body*
4,1,4,$2,$3,$4,$5,$6,$7,$8,$9,$2,$3,0*
0 Add four circle primitives for the rounded corners*
1,1,$1+$1,$2,$3*
1,1,$1+$1,$4,$5*
1,1,$1+$1,$6,$7*
1,1,$1+$1,$8,$9*
0 Add four rect primitives between the rounded corners*
20,1,$1+$1,$2,$3,$4,$5,0*
20,1,$1+$1,$4,$5,$6,$7,0*
20,1,$1+$1,$6,$7,$8,$9,0*
20,1,$1+$1,$8,$9,$2,$3,0*%
G04 Aperture macros list end*
%ADD10C,0.254000*%
%ADD11C,0.381000*%
%ADD12C,4.572000*%
%ADD13RoundRect,0.254000X0.863600X0.863600X-0.863600X0.863600X-0.863600X-0.863600X0.863600X-0.863600X0*%
%ADD14C,2.235200*%
%ADD15RoundRect,0.254000X-0.863600X0.863600X-0.863600X-0.863600X0.863600X-0.863600X0.863600X0.863600X0*%
%ADD16RoundRect,0.254000X-0.863600X-0.863600X0.863600X-0.863600X0.863600X0.863600X-0.863600X0.863600X0*%
%ADD17RoundRect,0.254000X-0.889000X-3.556000X0.889000X-3.556000X0.889000X3.556000X-0.889000X3.556000X0*%
%ADD18RoundRect,0.254000X-0.950000X1.000000X-0.950000X-1.000000X0.950000X-1.000000X0.950000X1.000000X0*%
%ADD19C,2.408000*%
%ADD20C,1.905000*%
%ADD21O,2.235200X2.235200*%
%ADD22RoundRect,0.254000X-1.143000X-0.762000X1.143000X-0.762000X1.143000X0.762000X-1.143000X0.762000X0*%
%ADD23O,2.794000X2.032000*%
%ADD24RoundRect,0.254000X-0.800000X0.800000X-0.800000X-0.800000X0.800000X-0.800000X0.800000X0.800000X0*%
%ADD25O,2.108000X2.108000*%
%ADD26C,2.506980*%
G04 APERTURE END LIST*
D10*
X113362618Y-105984318D02*
X112636904Y-105984318D01*
X112999761Y-107254318D02*
X112999761Y-105984318D01*
X112213571Y-107254318D02*
X112213571Y-105984318D01*
X112213571Y-105984318D02*
X111729761Y-105984318D01*
X111729761Y-105984318D02*
X111608809Y-106044794D01*
X111608809Y-106044794D02*
X111548332Y-106105270D01*
X111548332Y-106105270D02*
X111487856Y-106226222D01*
X111487856Y-106226222D02*
X111487856Y-106407651D01*
X111487856Y-106407651D02*
X111548332Y-106528603D01*
X111548332Y-106528603D02*
X111608809Y-106589080D01*
X111608809Y-106589080D02*
X111729761Y-106649556D01*
X111729761Y-106649556D02*
X112213571Y-106649556D01*
X110278332Y-107254318D02*
X111004047Y-107254318D01*
X110641190Y-107254318D02*
X110641190Y-105984318D01*
X110641190Y-105984318D02*
X110762142Y-106165746D01*
X110762142Y-106165746D02*
X110883094Y-106286699D01*
X110883094Y-106286699D02*
X111004047Y-106347175D01*
X131523618Y-122748318D02*
X130797904Y-122748318D01*
X131160761Y-124018318D02*
X131160761Y-122748318D01*
X130374571Y-124018318D02*
X130374571Y-122748318D01*
X130374571Y-122748318D02*
X129890761Y-122748318D01*
X129890761Y-122748318D02*
X129769809Y-122808794D01*
X129769809Y-122808794D02*
X129709332Y-122869270D01*
X129709332Y-122869270D02*
X129648856Y-122990222D01*
X129648856Y-122990222D02*
X129648856Y-123171651D01*
X129648856Y-123171651D02*
X129709332Y-123292603D01*
X129709332Y-123292603D02*
X129769809Y-123353080D01*
X129769809Y-123353080D02*
X129890761Y-123413556D01*
X129890761Y-123413556D02*
X130374571Y-123413556D01*
X129165047Y-122869270D02*
X129104571Y-122808794D01*
X129104571Y-122808794D02*
X128983618Y-122748318D01*
X128983618Y-122748318D02*
X128681237Y-122748318D01*
X128681237Y-122748318D02*
X128560285Y-122808794D01*
X128560285Y-122808794D02*
X128499809Y-122869270D01*
X128499809Y-122869270D02*
X128439332Y-122990222D01*
X128439332Y-122990222D02*
X128439332Y-123111175D01*
X128439332Y-123111175D02*
X128499809Y-123292603D01*
X128499809Y-123292603D02*
X129225523Y-124018318D01*
X129225523Y-124018318D02*
X128439332Y-124018318D01*
X113362618Y-117414318D02*
X112636904Y-117414318D01*
X112999761Y-118684318D02*
X112999761Y-117414318D01*
X112213571Y-118684318D02*
X112213571Y-117414318D01*
X112213571Y-117414318D02*
X111729761Y-117414318D01*
X111729761Y-117414318D02*
X111608809Y-117474794D01*
X111608809Y-117474794D02*
X111548332Y-117535270D01*
X111548332Y-117535270D02*
X111487856Y-117656222D01*
X111487856Y-117656222D02*
X111487856Y-117837651D01*
X111487856Y-117837651D02*
X111548332Y-117958603D01*
X111548332Y-117958603D02*
X111608809Y-118019080D01*
X111608809Y-118019080D02*
X111729761Y-118079556D01*
X111729761Y-118079556D02*
X112213571Y-118079556D01*
X111064523Y-117414318D02*
X110278332Y-117414318D01*
X110278332Y-117414318D02*
X110701666Y-117898127D01*
X110701666Y-117898127D02*
X110520237Y-117898127D01*
X110520237Y-117898127D02*
X110399285Y-117958603D01*
X110399285Y-117958603D02*
X110338809Y-118019080D01*
X110338809Y-118019080D02*
X110278332Y-118140032D01*
X110278332Y-118140032D02*
X110278332Y-118442413D01*
X110278332Y-118442413D02*
X110338809Y-118563365D01*
X110338809Y-118563365D02*
X110399285Y-118623842D01*
X110399285Y-118623842D02*
X110520237Y-118684318D01*
X110520237Y-118684318D02*
X110883094Y-118684318D01*
X110883094Y-118684318D02*
X111004047Y-118623842D01*
X111004047Y-118623842D02*
X111064523Y-118563365D01*
X120226665Y-75927651D02*
X119984760Y-76774318D01*
X119984760Y-76774318D02*
X119742855Y-76169556D01*
X119742855Y-76169556D02*
X119500951Y-76774318D01*
X119500951Y-76774318D02*
X119259046Y-75927651D01*
X118896189Y-75927651D02*
X118654284Y-76774318D01*
X118654284Y-76774318D02*
X118412379Y-76169556D01*
X118412379Y-76169556D02*
X118170475Y-76774318D01*
X118170475Y-76774318D02*
X117928570Y-75927651D01*
X117565713Y-75927651D02*
X117323808Y-76774318D01*
X117323808Y-76774318D02*
X117081903Y-76169556D01*
X117081903Y-76169556D02*
X116839999Y-76774318D01*
X116839999Y-76774318D02*
X116598094Y-75927651D01*
X116114285Y-76653365D02*
X116053808Y-76713842D01*
X116053808Y-76713842D02*
X116114285Y-76774318D01*
X116114285Y-76774318D02*
X116174761Y-76713842D01*
X116174761Y-76713842D02*
X116114285Y-76653365D01*
X116114285Y-76653365D02*
X116114285Y-76774318D01*
X114965237Y-75927651D02*
X114965237Y-76955746D01*
X114965237Y-76955746D02*
X115025713Y-77076699D01*
X115025713Y-77076699D02*
X115086189Y-77137175D01*
X115086189Y-77137175D02*
X115207142Y-77197651D01*
X115207142Y-77197651D02*
X115388570Y-77197651D01*
X115388570Y-77197651D02*
X115509523Y-77137175D01*
X114965237Y-76713842D02*
X115086189Y-76774318D01*
X115086189Y-76774318D02*
X115328094Y-76774318D01*
X115328094Y-76774318D02*
X115449046Y-76713842D01*
X115449046Y-76713842D02*
X115509523Y-76653365D01*
X115509523Y-76653365D02*
X115569999Y-76532413D01*
X115569999Y-76532413D02*
X115569999Y-76169556D01*
X115569999Y-76169556D02*
X115509523Y-76048603D01*
X115509523Y-76048603D02*
X115449046Y-75988127D01*
X115449046Y-75988127D02*
X115328094Y-75927651D01*
X115328094Y-75927651D02*
X115086189Y-75927651D01*
X115086189Y-75927651D02*
X114965237Y-75988127D01*
X114179046Y-76774318D02*
X114299998Y-76713842D01*
X114299998Y-76713842D02*
X114360475Y-76592889D01*
X114360475Y-76592889D02*
X114360475Y-75504318D01*
X113695237Y-76774318D02*
X113695237Y-75927651D01*
X113695237Y-75504318D02*
X113755713Y-75564794D01*
X113755713Y-75564794D02*
X113695237Y-75625270D01*
X113695237Y-75625270D02*
X113634760Y-75564794D01*
X113634760Y-75564794D02*
X113695237Y-75504318D01*
X113695237Y-75504318D02*
X113695237Y-75625270D01*
X113271903Y-75927651D02*
X112788094Y-75927651D01*
X113090475Y-75504318D02*
X113090475Y-76592889D01*
X113090475Y-76592889D02*
X113029998Y-76713842D01*
X113029998Y-76713842D02*
X112909046Y-76774318D01*
X112909046Y-76774318D02*
X112788094Y-76774318D01*
X111820475Y-76713842D02*
X111941427Y-76774318D01*
X111941427Y-76774318D02*
X112183332Y-76774318D01*
X112183332Y-76774318D02*
X112304284Y-76713842D01*
X112304284Y-76713842D02*
X112364761Y-76653365D01*
X112364761Y-76653365D02*
X112425237Y-76532413D01*
X112425237Y-76532413D02*
X112425237Y-76169556D01*
X112425237Y-76169556D02*
X112364761Y-76048603D01*
X112364761Y-76048603D02*
X112304284Y-75988127D01*
X112304284Y-75988127D02*
X112183332Y-75927651D01*
X112183332Y-75927651D02*
X111941427Y-75927651D01*
X111941427Y-75927651D02*
X111820475Y-75988127D01*
X111276190Y-76774318D02*
X111276190Y-75504318D01*
X110731904Y-76774318D02*
X110731904Y-76109080D01*
X110731904Y-76109080D02*
X110792380Y-75988127D01*
X110792380Y-75988127D02*
X110913332Y-75927651D01*
X110913332Y-75927651D02*
X111094761Y-75927651D01*
X111094761Y-75927651D02*
X111215713Y-75988127D01*
X111215713Y-75988127D02*
X111276190Y-76048603D01*
X110248094Y-75927651D02*
X110006189Y-76774318D01*
X110006189Y-76774318D02*
X109764284Y-76169556D01*
X109764284Y-76169556D02*
X109522380Y-76774318D01*
X109522380Y-76774318D02*
X109280475Y-75927651D01*
X108796666Y-76774318D02*
X108796666Y-75927651D01*
X108796666Y-76169556D02*
X108736189Y-76048603D01*
X108736189Y-76048603D02*
X108675713Y-75988127D01*
X108675713Y-75988127D02*
X108554761Y-75927651D01*
X108554761Y-75927651D02*
X108433808Y-75927651D01*
X108010476Y-76774318D02*
X108010476Y-75504318D01*
X107889523Y-76290508D02*
X107526666Y-76774318D01*
X107526666Y-75927651D02*
X108010476Y-76411461D01*
X107042857Y-76713842D02*
X106921904Y-76774318D01*
X106921904Y-76774318D02*
X106680000Y-76774318D01*
X106680000Y-76774318D02*
X106559047Y-76713842D01*
X106559047Y-76713842D02*
X106498571Y-76592889D01*
X106498571Y-76592889D02*
X106498571Y-76532413D01*
X106498571Y-76532413D02*
X106559047Y-76411461D01*
X106559047Y-76411461D02*
X106680000Y-76350984D01*
X106680000Y-76350984D02*
X106861428Y-76350984D01*
X106861428Y-76350984D02*
X106982381Y-76290508D01*
X106982381Y-76290508D02*
X107042857Y-76169556D01*
X107042857Y-76169556D02*
X107042857Y-76109080D01*
X107042857Y-76109080D02*
X106982381Y-75988127D01*
X106982381Y-75988127D02*
X106861428Y-75927651D01*
X106861428Y-75927651D02*
X106680000Y-75927651D01*
X106680000Y-75927651D02*
X106559047Y-75988127D01*
X105954286Y-76653365D02*
X105893809Y-76713842D01*
X105893809Y-76713842D02*
X105954286Y-76774318D01*
X105954286Y-76774318D02*
X106014762Y-76713842D01*
X106014762Y-76713842D02*
X105954286Y-76653365D01*
X105954286Y-76653365D02*
X105954286Y-76774318D01*
X104805238Y-76713842D02*
X104926190Y-76774318D01*
X104926190Y-76774318D02*
X105168095Y-76774318D01*
X105168095Y-76774318D02*
X105289047Y-76713842D01*
X105289047Y-76713842D02*
X105349524Y-76653365D01*
X105349524Y-76653365D02*
X105410000Y-76532413D01*
X105410000Y-76532413D02*
X105410000Y-76169556D01*
X105410000Y-76169556D02*
X105349524Y-76048603D01*
X105349524Y-76048603D02*
X105289047Y-75988127D01*
X105289047Y-75988127D02*
X105168095Y-75927651D01*
X105168095Y-75927651D02*
X104926190Y-75927651D01*
X104926190Y-75927651D02*
X104805238Y-75988127D01*
X104079524Y-76774318D02*
X104200476Y-76713842D01*
X104200476Y-76713842D02*
X104260953Y-76653365D01*
X104260953Y-76653365D02*
X104321429Y-76532413D01*
X104321429Y-76532413D02*
X104321429Y-76169556D01*
X104321429Y-76169556D02*
X104260953Y-76048603D01*
X104260953Y-76048603D02*
X104200476Y-75988127D01*
X104200476Y-75988127D02*
X104079524Y-75927651D01*
X104079524Y-75927651D02*
X103898095Y-75927651D01*
X103898095Y-75927651D02*
X103777143Y-75988127D01*
X103777143Y-75988127D02*
X103716667Y-76048603D01*
X103716667Y-76048603D02*
X103656191Y-76169556D01*
X103656191Y-76169556D02*
X103656191Y-76532413D01*
X103656191Y-76532413D02*
X103716667Y-76653365D01*
X103716667Y-76653365D02*
X103777143Y-76713842D01*
X103777143Y-76713842D02*
X103898095Y-76774318D01*
X103898095Y-76774318D02*
X104079524Y-76774318D01*
X103111905Y-76774318D02*
X103111905Y-75927651D01*
X103111905Y-76048603D02*
X103051428Y-75988127D01*
X103051428Y-75988127D02*
X102930476Y-75927651D01*
X102930476Y-75927651D02*
X102749047Y-75927651D01*
X102749047Y-75927651D02*
X102628095Y-75988127D01*
X102628095Y-75988127D02*
X102567619Y-76109080D01*
X102567619Y-76109080D02*
X102567619Y-76774318D01*
X102567619Y-76109080D02*
X102507143Y-75988127D01*
X102507143Y-75988127D02*
X102386190Y-75927651D01*
X102386190Y-75927651D02*
X102204762Y-75927651D01*
X102204762Y-75927651D02*
X102083809Y-75988127D01*
X102083809Y-75988127D02*
X102023333Y-76109080D01*
X102023333Y-76109080D02*
X102023333Y-76774318D01*
X100511429Y-75443842D02*
X101600000Y-77076699D01*
X100209048Y-76774318D02*
X99543810Y-75927651D01*
X100209048Y-75927651D02*
X99543810Y-76774318D01*
X99241429Y-75927651D02*
X98757620Y-75927651D01*
X99060001Y-75504318D02*
X99060001Y-76592889D01*
X99060001Y-76592889D02*
X98999524Y-76713842D01*
X98999524Y-76713842D02*
X98878572Y-76774318D01*
X98878572Y-76774318D02*
X98757620Y-76774318D01*
X98334287Y-76290508D02*
X97366668Y-76290508D01*
X96761906Y-76774318D02*
X96761906Y-75927651D01*
X96761906Y-75504318D02*
X96822382Y-75564794D01*
X96822382Y-75564794D02*
X96761906Y-75625270D01*
X96761906Y-75625270D02*
X96701429Y-75564794D01*
X96701429Y-75564794D02*
X96761906Y-75504318D01*
X96761906Y-75504318D02*
X96761906Y-75625270D01*
X95612858Y-76774318D02*
X95612858Y-75504318D01*
X95612858Y-76713842D02*
X95733810Y-76774318D01*
X95733810Y-76774318D02*
X95975715Y-76774318D01*
X95975715Y-76774318D02*
X96096667Y-76713842D01*
X96096667Y-76713842D02*
X96157144Y-76653365D01*
X96157144Y-76653365D02*
X96217620Y-76532413D01*
X96217620Y-76532413D02*
X96217620Y-76169556D01*
X96217620Y-76169556D02*
X96157144Y-76048603D01*
X96157144Y-76048603D02*
X96096667Y-75988127D01*
X96096667Y-75988127D02*
X95975715Y-75927651D01*
X95975715Y-75927651D02*
X95733810Y-75927651D01*
X95733810Y-75927651D02*
X95612858Y-75988127D01*
X94524286Y-76713842D02*
X94645238Y-76774318D01*
X94645238Y-76774318D02*
X94887143Y-76774318D01*
X94887143Y-76774318D02*
X95008096Y-76713842D01*
X95008096Y-76713842D02*
X95068572Y-76592889D01*
X95068572Y-76592889D02*
X95068572Y-76109080D01*
X95068572Y-76109080D02*
X95008096Y-75988127D01*
X95008096Y-75988127D02*
X94887143Y-75927651D01*
X94887143Y-75927651D02*
X94645238Y-75927651D01*
X94645238Y-75927651D02*
X94524286Y-75988127D01*
X94524286Y-75988127D02*
X94463810Y-76109080D01*
X94463810Y-76109080D02*
X94463810Y-76230032D01*
X94463810Y-76230032D02*
X95068572Y-76350984D01*
D11*
X118926428Y-72396192D02*
X119168333Y-72275240D01*
X119168333Y-72275240D02*
X119531190Y-72275240D01*
X119531190Y-72275240D02*
X119894047Y-72396192D01*
X119894047Y-72396192D02*
X120135952Y-72638097D01*
X120135952Y-72638097D02*
X120256905Y-72880002D01*
X120256905Y-72880002D02*
X120377857Y-73363811D01*
X120377857Y-73363811D02*
X120377857Y-73726668D01*
X120377857Y-73726668D02*
X120256905Y-74210478D01*
X120256905Y-74210478D02*
X120135952Y-74452383D01*
X120135952Y-74452383D02*
X119894047Y-74694288D01*
X119894047Y-74694288D02*
X119531190Y-74815240D01*
X119531190Y-74815240D02*
X119289286Y-74815240D01*
X119289286Y-74815240D02*
X118926428Y-74694288D01*
X118926428Y-74694288D02*
X118805476Y-74573335D01*
X118805476Y-74573335D02*
X118805476Y-73726668D01*
X118805476Y-73726668D02*
X119289286Y-73726668D01*
X117958809Y-72275240D02*
X117354047Y-74815240D01*
X117354047Y-74815240D02*
X116870238Y-73000954D01*
X116870238Y-73000954D02*
X116386428Y-74815240D01*
X116386428Y-74815240D02*
X115781667Y-72275240D01*
X114814048Y-73847621D02*
X112878810Y-73847621D01*
X111911190Y-72275240D02*
X110217857Y-74815240D01*
X110217857Y-72275240D02*
X111911190Y-74815240D01*
X109613095Y-72275240D02*
X108161666Y-72275240D01*
X108887380Y-74815240D02*
X108887380Y-72275240D01*
X107315000Y-74815240D02*
X107315000Y-72275240D01*
X106105476Y-74815240D02*
X106105476Y-72275240D01*
X106105476Y-72275240D02*
X105500714Y-72275240D01*
X105500714Y-72275240D02*
X105137857Y-72396192D01*
X105137857Y-72396192D02*
X104895952Y-72638097D01*
X104895952Y-72638097D02*
X104774999Y-72880002D01*
X104774999Y-72880002D02*
X104654047Y-73363811D01*
X104654047Y-73363811D02*
X104654047Y-73726668D01*
X104654047Y-73726668D02*
X104774999Y-74210478D01*
X104774999Y-74210478D02*
X104895952Y-74452383D01*
X104895952Y-74452383D02*
X105137857Y-74694288D01*
X105137857Y-74694288D02*
X105500714Y-74815240D01*
X105500714Y-74815240D02*
X106105476Y-74815240D01*
X103565476Y-73484764D02*
X102718809Y-73484764D01*
X102355952Y-74815240D02*
X103565476Y-74815240D01*
X103565476Y-74815240D02*
X103565476Y-72275240D01*
X103565476Y-72275240D02*
X102355952Y-72275240D01*
X101267381Y-73847621D02*
X99332143Y-73847621D01*
X97034047Y-73121907D02*
X97034047Y-74815240D01*
X97638809Y-72154288D02*
X98243571Y-73968573D01*
X98243571Y-73968573D02*
X96671190Y-73968573D01*
X94856904Y-73484764D02*
X94494047Y-73605716D01*
X94494047Y-73605716D02*
X94373094Y-73726668D01*
X94373094Y-73726668D02*
X94252142Y-73968573D01*
X94252142Y-73968573D02*
X94252142Y-74331430D01*
X94252142Y-74331430D02*
X94373094Y-74573335D01*
X94373094Y-74573335D02*
X94494047Y-74694288D01*
X94494047Y-74694288D02*
X94735952Y-74815240D01*
X94735952Y-74815240D02*
X95703571Y-74815240D01*
X95703571Y-74815240D02*
X95703571Y-72275240D01*
X95703571Y-72275240D02*
X94856904Y-72275240D01*
X94856904Y-72275240D02*
X94614999Y-72396192D01*
X94614999Y-72396192D02*
X94494047Y-72517145D01*
X94494047Y-72517145D02*
X94373094Y-72759049D01*
X94373094Y-72759049D02*
X94373094Y-73000954D01*
X94373094Y-73000954D02*
X94494047Y-73242859D01*
X94494047Y-73242859D02*
X94614999Y-73363811D01*
X94614999Y-73363811D02*
X94856904Y-73484764D01*
X94856904Y-73484764D02*
X95703571Y-73484764D01*
D12*
%TO.C,P6*%
X186690000Y-128270000D03*
%TD*%
%TO.C,P7*%
X186690000Y-71755000D03*
%TD*%
D13*
%TO.C,J4*%
X102870000Y-82550000D03*
D14*
X100330000Y-82550000D03*
%TD*%
D15*
%TO.C,J1*%
X139065000Y-37465000D03*
D14*
X139065000Y-40005000D03*
X139065000Y-42545000D03*
%TD*%
D15*
%TO.C,J2*%
X146685000Y-37465000D03*
D14*
X146685000Y-40005000D03*
X146685000Y-42545000D03*
%TD*%
D16*
%TO.C,J5*%
X102870000Y-128270000D03*
D14*
X102870000Y-125730000D03*
X105410000Y-128270000D03*
X105410000Y-125730000D03*
X107950000Y-128270000D03*
X107950000Y-125730000D03*
X110490000Y-128270000D03*
X110490000Y-125730000D03*
X113030000Y-128270000D03*
X113030000Y-125730000D03*
%TD*%
D13*
%TO.C,J3*%
X186055000Y-40005000D03*
D14*
X183515000Y-40005000D03*
%TD*%
D17*
%TO.C,BUS1*%
X165100000Y-136906000D03*
X162560000Y-136906000D03*
X160020000Y-136906000D03*
X157480000Y-136906000D03*
X147320000Y-136906000D03*
X139700000Y-136906000D03*
X137160000Y-136906000D03*
X134620000Y-136906000D03*
X132080000Y-136906000D03*
X114300000Y-136906000D03*
X109220000Y-136906000D03*
X106680000Y-136906000D03*
X104140000Y-136906000D03*
X93980000Y-136906000D03*
X88900000Y-136906000D03*
%TD*%
D18*
%TO.C,D1*%
X179070000Y-40005000D03*
D19*
X176530000Y-40005000D03*
%TD*%
D20*
%TO.C,TP2*%
X132080000Y-121285000D03*
%TD*%
%TO.C,TP3*%
X111760000Y-115570000D03*
%TD*%
%TO.C,TP1*%
X111760000Y-109220000D03*
%TD*%
D15*
%TO.C,C12*%
X86360000Y-123825000D03*
D14*
X86360000Y-126325000D03*
%TD*%
D13*
%TO.C,IDE1*%
X85090000Y-88265000D03*
D21*
X82550000Y-88265000D03*
X85090000Y-85725000D03*
X82550000Y-85725000D03*
X85090000Y-83185000D03*
X82550000Y-83185000D03*
X85090000Y-80645000D03*
X82550000Y-80645000D03*
X85090000Y-78105000D03*
X82550000Y-78105000D03*
X85090000Y-75565000D03*
X82550000Y-75565000D03*
X85090000Y-73025000D03*
X82550000Y-73025000D03*
X85090000Y-70485000D03*
X82550000Y-70485000D03*
X85090000Y-67945000D03*
X82550000Y-67945000D03*
X85090000Y-65405000D03*
X82550000Y-65405000D03*
X85090000Y-62865000D03*
X82550000Y-62865000D03*
X85090000Y-60325000D03*
X82550000Y-60325000D03*
X85090000Y-57785000D03*
X82550000Y-57785000D03*
X85090000Y-55245000D03*
X82550000Y-55245000D03*
X85090000Y-52705000D03*
X82550000Y-52705000D03*
X85090000Y-50165000D03*
X82550000Y-50165000D03*
X85090000Y-47625000D03*
X82550000Y-47625000D03*
X85090000Y-45085000D03*
X82550000Y-45085000D03*
X85090000Y-42545000D03*
X82550000Y-42545000D03*
X85090000Y-40005000D03*
X82550000Y-40005000D03*
%TD*%
D22*
%TO.C,SW1*%
X82550000Y-97790000D03*
D23*
X82550000Y-100330000D03*
X82550000Y-102870000D03*
X82550000Y-105410000D03*
X82550000Y-107950000D03*
X82550000Y-110490000D03*
X82550000Y-113030000D03*
X82550000Y-115570000D03*
X90170000Y-115570000D03*
X90170000Y-113030000D03*
X90170000Y-110490000D03*
X90170000Y-107950000D03*
X90170000Y-105410000D03*
X90170000Y-102870000D03*
X90170000Y-100330000D03*
X90170000Y-97790000D03*
%TD*%
D22*
%TO.C,SW2*%
X138430000Y-97790000D03*
D23*
X138430000Y-100330000D03*
X138430000Y-102870000D03*
X138430000Y-105410000D03*
X138430000Y-107950000D03*
X138430000Y-110490000D03*
X138430000Y-113030000D03*
X138430000Y-115570000D03*
X146050000Y-115570000D03*
X146050000Y-113030000D03*
X146050000Y-110490000D03*
X146050000Y-107950000D03*
X146050000Y-105410000D03*
X146050000Y-102870000D03*
X146050000Y-100330000D03*
X146050000Y-97790000D03*
%TD*%
D22*
%TO.C,U1*%
X99695000Y-45085000D03*
D23*
X99695000Y-47625000D03*
X99695000Y-50165000D03*
X99695000Y-52705000D03*
X99695000Y-55245000D03*
X99695000Y-57785000D03*
X99695000Y-60325000D03*
X99695000Y-62865000D03*
X99695000Y-65405000D03*
X99695000Y-67945000D03*
X107315000Y-67945000D03*
X107315000Y-65405000D03*
X107315000Y-62865000D03*
X107315000Y-60325000D03*
X107315000Y-57785000D03*
X107315000Y-55245000D03*
X107315000Y-52705000D03*
X107315000Y-50165000D03*
X107315000Y-47625000D03*
X107315000Y-45085000D03*
%TD*%
D22*
%TO.C,U2*%
X113030000Y-45085000D03*
D23*
X113030000Y-47625000D03*
X113030000Y-50165000D03*
X113030000Y-52705000D03*
X113030000Y-55245000D03*
X113030000Y-57785000D03*
X113030000Y-60325000D03*
X113030000Y-62865000D03*
X113030000Y-65405000D03*
X113030000Y-67945000D03*
X120650000Y-67945000D03*
X120650000Y-65405000D03*
X120650000Y-62865000D03*
X120650000Y-60325000D03*
X120650000Y-57785000D03*
X120650000Y-55245000D03*
X120650000Y-52705000D03*
X120650000Y-50165000D03*
X120650000Y-47625000D03*
X120650000Y-45085000D03*
%TD*%
D22*
%TO.C,U3*%
X126365000Y-45085000D03*
D23*
X126365000Y-47625000D03*
X126365000Y-50165000D03*
X126365000Y-52705000D03*
X126365000Y-55245000D03*
X126365000Y-57785000D03*
X126365000Y-60325000D03*
X126365000Y-62865000D03*
X126365000Y-65405000D03*
X126365000Y-67945000D03*
X133985000Y-67945000D03*
X133985000Y-65405000D03*
X133985000Y-62865000D03*
X133985000Y-60325000D03*
X133985000Y-57785000D03*
X133985000Y-55245000D03*
X133985000Y-52705000D03*
X133985000Y-50165000D03*
X133985000Y-47625000D03*
X133985000Y-45085000D03*
%TD*%
D22*
%TO.C,U5*%
X150495000Y-52705000D03*
D23*
X150495000Y-55245000D03*
X150495000Y-57785000D03*
X150495000Y-60325000D03*
X150495000Y-62865000D03*
X150495000Y-65405000D03*
X150495000Y-67945000D03*
X158115000Y-67945000D03*
X158115000Y-65405000D03*
X158115000Y-62865000D03*
X158115000Y-60325000D03*
X158115000Y-57785000D03*
X158115000Y-55245000D03*
X158115000Y-52705000D03*
%TD*%
D22*
%TO.C,U6*%
X161925000Y-52705000D03*
D23*
X161925000Y-55245000D03*
X161925000Y-57785000D03*
X161925000Y-60325000D03*
X161925000Y-62865000D03*
X161925000Y-65405000D03*
X161925000Y-67945000D03*
X169545000Y-67945000D03*
X169545000Y-65405000D03*
X169545000Y-62865000D03*
X169545000Y-60325000D03*
X169545000Y-57785000D03*
X169545000Y-55245000D03*
X169545000Y-52705000D03*
%TD*%
D22*
%TO.C,U7*%
X173355000Y-50165000D03*
D23*
X173355000Y-52705000D03*
X173355000Y-55245000D03*
X173355000Y-57785000D03*
X173355000Y-60325000D03*
X173355000Y-62865000D03*
X173355000Y-65405000D03*
X173355000Y-67945000D03*
X180975000Y-67945000D03*
X180975000Y-65405000D03*
X180975000Y-62865000D03*
X180975000Y-60325000D03*
X180975000Y-57785000D03*
X180975000Y-55245000D03*
X180975000Y-52705000D03*
X180975000Y-50165000D03*
%TD*%
D22*
%TO.C,U8*%
X100330000Y-92710000D03*
D23*
X100330000Y-95250000D03*
X100330000Y-97790000D03*
X100330000Y-100330000D03*
X100330000Y-102870000D03*
X100330000Y-105410000D03*
X100330000Y-107950000D03*
X100330000Y-110490000D03*
X100330000Y-113030000D03*
X100330000Y-115570000D03*
X107950000Y-115570000D03*
X107950000Y-113030000D03*
X107950000Y-110490000D03*
X107950000Y-107950000D03*
X107950000Y-105410000D03*
X107950000Y-102870000D03*
X107950000Y-100330000D03*
X107950000Y-97790000D03*
X107950000Y-95250000D03*
X107950000Y-92710000D03*
%TD*%
D22*
%TO.C,U9*%
X115570000Y-82550000D03*
D23*
X115570000Y-85090000D03*
X115570000Y-87630000D03*
X115570000Y-90170000D03*
X115570000Y-92710000D03*
X115570000Y-95250000D03*
X115570000Y-97790000D03*
X115570000Y-100330000D03*
X115570000Y-102870000D03*
X115570000Y-105410000D03*
X115570000Y-107950000D03*
X115570000Y-110490000D03*
X115570000Y-113030000D03*
X115570000Y-115570000D03*
X130810000Y-115570000D03*
X130810000Y-113030000D03*
X130810000Y-110490000D03*
X130810000Y-107950000D03*
X130810000Y-105410000D03*
X130810000Y-102870000D03*
X130810000Y-100330000D03*
X130810000Y-97790000D03*
X130810000Y-95250000D03*
X130810000Y-92710000D03*
X130810000Y-90170000D03*
X130810000Y-87630000D03*
X130810000Y-85090000D03*
X130810000Y-82550000D03*
%TD*%
D22*
%TO.C,U10*%
X156210000Y-92710000D03*
D23*
X156210000Y-95250000D03*
X156210000Y-97790000D03*
X156210000Y-100330000D03*
X156210000Y-102870000D03*
X156210000Y-105410000D03*
X156210000Y-107950000D03*
X156210000Y-110490000D03*
X156210000Y-113030000D03*
X156210000Y-115570000D03*
X163830000Y-115570000D03*
X163830000Y-113030000D03*
X163830000Y-110490000D03*
X163830000Y-107950000D03*
X163830000Y-105410000D03*
X163830000Y-102870000D03*
X163830000Y-100330000D03*
X163830000Y-97790000D03*
X163830000Y-95250000D03*
X163830000Y-92710000D03*
%TD*%
D22*
%TO.C,U11*%
X175260000Y-92710000D03*
D23*
X175260000Y-95250000D03*
X175260000Y-97790000D03*
X175260000Y-100330000D03*
X175260000Y-102870000D03*
X175260000Y-105410000D03*
X175260000Y-107950000D03*
X175260000Y-110490000D03*
X175260000Y-113030000D03*
X175260000Y-115570000D03*
X182880000Y-115570000D03*
X182880000Y-113030000D03*
X182880000Y-110490000D03*
X182880000Y-107950000D03*
X182880000Y-105410000D03*
X182880000Y-102870000D03*
X182880000Y-100330000D03*
X182880000Y-97790000D03*
X182880000Y-95250000D03*
X182880000Y-92710000D03*
%TD*%
D24*
%TO.C,RP1*%
X95250000Y-92710000D03*
D25*
X95250000Y-95250000D03*
X95250000Y-97790000D03*
X95250000Y-100330000D03*
X95250000Y-102870000D03*
X95250000Y-105410000D03*
X95250000Y-107950000D03*
X95250000Y-110490000D03*
X95250000Y-113030000D03*
X95250000Y-115570000D03*
%TD*%
D24*
%TO.C,RP2*%
X151130000Y-92710000D03*
D25*
X151130000Y-95250000D03*
X151130000Y-97790000D03*
X151130000Y-100330000D03*
X151130000Y-102870000D03*
X151130000Y-105410000D03*
X151130000Y-107950000D03*
X151130000Y-110490000D03*
X151130000Y-113030000D03*
X151130000Y-115570000D03*
%TD*%
D26*
%TO.C,C1*%
X107315000Y-37465000D03*
X99695000Y-37465000D03*
%TD*%
%TO.C,C2*%
X120650000Y-37465000D03*
X113030000Y-37465000D03*
%TD*%
%TO.C,C3*%
X133985000Y-37465000D03*
X126365000Y-37465000D03*
%TD*%
%TO.C,C4*%
X146685000Y-48260000D03*
X139065000Y-48260000D03*
%TD*%
%TO.C,C5*%
X158115000Y-48260000D03*
X150495000Y-48260000D03*
%TD*%
%TO.C,C6*%
X169545000Y-48260000D03*
X161925000Y-48260000D03*
%TD*%
%TO.C,C7*%
X173355000Y-45720000D03*
X180975000Y-45720000D03*
%TD*%
%TO.C,C9*%
X137160000Y-82550000D03*
X147320000Y-82550000D03*
%TD*%
%TO.C,C8*%
X107950000Y-88265000D03*
X100330000Y-88265000D03*
%TD*%
%TO.C,C10*%
X163830000Y-88265000D03*
X156210000Y-88265000D03*
%TD*%
%TO.C,R1*%
X172085000Y-40005000D03*
X161925000Y-40005000D03*
%TD*%
%TO.C,R2*%
X186055000Y-50165000D03*
X186055000Y-60325000D03*
%TD*%
%TO.C,R3*%
X147320000Y-85090000D03*
X137160000Y-85090000D03*
%TD*%
%TO.C,R4*%
X137160000Y-87630000D03*
X147320000Y-87630000D03*
%TD*%
D22*
%TO.C,U4*%
X139065000Y-52705000D03*
D23*
X139065000Y-55245000D03*
X139065000Y-57785000D03*
X139065000Y-60325000D03*
X139065000Y-62865000D03*
X139065000Y-65405000D03*
X139065000Y-67945000D03*
X146685000Y-67945000D03*
X146685000Y-65405000D03*
X146685000Y-62865000D03*
X146685000Y-60325000D03*
X146685000Y-57785000D03*
X146685000Y-55245000D03*
X146685000Y-52705000D03*
%TD*%
D26*
%TO.C,C11*%
X175260000Y-88265000D03*
X182880000Y-88265000D03*
%TD*%
G36*
X167582121Y-132735002D02*
G01*
X167628614Y-132788658D01*
X167640000Y-132841000D01*
X167640000Y-140844000D01*
X167619998Y-140912121D01*
X167566342Y-140958614D01*
X167514000Y-140970000D01*
X86486000Y-140970000D01*
X86417879Y-140949998D01*
X86371386Y-140896342D01*
X86360000Y-140844000D01*
X86360000Y-132841000D01*
X86380002Y-132772879D01*
X86433658Y-132726386D01*
X86486000Y-132715000D01*
X167514000Y-132715000D01*
X167582121Y-132735002D01*
G37*
M02*
